:SAMPLES-PER-SECOND 30
:FULLY-SPECIFIED
:DEGREES
348
root  79.5593 38.8918 0.839035 -157.485 -85.0713 155.372
RightUpLeg  -20.2107 -9.71682 -4.19182
RightLeg  6.84727 -8.53931 2.85397
RightFoot  1.81968 -0.382719 3.46333
RightToes  -4.65663e-010 0 -3.6325e-017
Spine  9.4606 -1.39615 -4.38623
Spine1  7.50895 -3.7537 7.05201
HEad  15.489 2.86959 -2.88113
LeftShoulder1  9.74686 -13.3173 -50.5804
LeftArm  22.6879 -3.87121 -38.4134
LeftForeArm  45.8013 -26.2757 -3.00449
LeftHand  -0.244104 0.0205437 5.32207
RightShoulder  4.46205 7.41138 34.9175
RightArm  -18.0089 -20.0492 43.8144
RightForeArm  14.2143 11.1759 4.32991
RightHand  -0.7569 0.931289 -13.9231
LeftUpLeg  11.2139 6.7618 -0.512954
LeftLeg  9.03475 19.0117 -3.48619
LeftFoot  -19.2639 -0.143926 -3.73827
LeftToes  -5.82109e-011 -4.83791e-012 -1.00937e-011
349
root  78.5526 38.7664 0.656809 -166.283 -85.2971 164.294
RightUpLeg  -21.0753 -11.8548 -2.05191
RightLeg  10.2248 -5.9765 1.98698
RightFoot  4.25868 -0.059044 0.633178
RightToes  -4.65663e-010 0 -3.6325e-017
Spine  9.34112 -2.15773 -3.58176
Spine1  7.73571 -4.8529 8.26886
HEad  14.6999 5.09356 -4.01488
LeftShoulder1  9.83142 -13.3591 -50.8897
LeftArm  22.7119 -4.13973 -40.1004
LeftForeArm  49.5406 -32.4062 -4.41838
LeftHand  -0.244104 0.0205437 5.32207
RightShoulder  4.53074 7.64873 34.6683
RightArm  -13.087 -21.2684 44.1412
RightForeArm  21.9634 11.0563 4.99475
RightHand  -0.395132 -0.335246 -8.78628
LeftUpLeg  12.9092 7.23374 0.643982
LeftLeg  8.87872 18.1446 -3.1137
LeftFoot  -20.1621 -0.267952 -5.04549
LeftToes  -5.82109e-011 -4.83791e-012 -1.00937e-011
350
root  77.4785 38.6418 0.458551 176.882 -85.3899 -178.861
RightUpLeg  -21.8839 -14.9371 0.954294
RightLeg  14.0375 -2.20361 1.01182
RightFoot  5.25861 0.204162 -1.16792
RightToes  -4.65663e-010 0 -3.6325e-017
Spine  9.24517 -3.07589 -1.57421
Spine1  8.19785 -5.86256 8.70687
HEad  13.2057 9.13369 -5.16882
LeftShoulder1  9.66346 -13.2792 -50.2625
LeftArm  24.2365 -4.69783 -41.1258
LeftForeArm  50.9641 -38.2218 -5.77475
LeftHand  -0.244104 0.0205437 5.32207
RightShoulder  4.60402 7.96085 34.2087
RightArm  -9.14829 -22.138 43.9626
RightForeArm  26.9177 12.0067 5.39924
RightHand  -0.099153 -1.59555 -3.1247
LeftUpLeg  14.2927 8.39616 2.53226
LeftLeg  10.0024 16.8637 -1.77437
LeftFoot  -20.8596 -0.363995 -5.8665
LeftToes  -5.82109e-011 -4.83791e-012 -1.00937e-011
351
root  76.3272 38.5096 0.213792 159.612 -84.3867 -161.802
RightUpLeg  -22.145 -16.346 3.76092
RightLeg  17.9233 0.252366 0.0930404
RightFoot  3.81097 0.326783 -2.27197
RightToes  -4.65663e-010 0 -3.6325e-017
Spine  9.38387 -3.69223 0.871836
Spine1  8.52119 -6.40076 8.76569
HEad  11.9732 10.2221 -5.85519
LeftShoulder1  9.27629 -12.9718 -49.154
LeftArm  24.7643 -4.97744 -41.5963
LeftForeArm  53.4276 -43.3152 -7.07749
LeftHand  -0.244104 0.0205437 5.32207
RightShoulder  4.64455 8.19839 33.7423
RightArm  -6.07593 -22.7317 43.4801
RightForeArm  24.7124 12.5942 5.88894
RightHand  -0.106146 -2.40491 -3.73474
LeftUpLeg  15.6091 10.9406 5.11648
LeftLeg  12.3273 14.358 0.213487
LeftFoot  -21.256 -0.543724 -7.69769
LeftToes  -5.82109e-011 -4.83791e-012 -1.00937e-011
352
root  75.1506 38.4095 -0.101676 152.606 -83.0789 -155.075
RightUpLeg  -21.5373 -14.9653 4.96283
RightLeg  21.3604 -0.410252 -0.430409
RightFoot  0.94931 0.374391 -3.42127
RightToes  -4.65663e-010 0 -3.6325e-017
Spine  10.1127 -3.90752 2.49404
Spine1  7.82215 -6.47382 9.18691
HEad  11.8308 11.2041 -6.15949
LeftShoulder1  8.99503 -12.7095 -48.4321
LeftArm  23.8967 -4.39062 -41.3008
LeftForeArm  55.2193 -46.6801 -8.05139
LeftHand  -0.244104 0.0205437 5.32207
RightShoulder  4.62999 8.11573 33.9006
RightArm  -4.50206 -23.0163 42.1753
RightForeArm  21.2995 12.2393 6.37517
RightHand  -0.189487 -2.45026 -7.00285
LeftUpLeg  16.1597 14.0067 7.61209
LeftLeg  16.2633 10.2547 2.51655
LeftFoot  -20.6194 -0.890901 -12.5778
LeftToes  -5.82109e-011 -4.83791e-012 -1.00937e-011
353
root  74.0356 38.3729 -0.470803 149.883 -82.5667 -152.392
RightUpLeg  -20.7094 -14.275 5.53659
RightLeg  23.8733 -1.07779 -0.744261
RightFoot  -1.84001 0.342835 -4.25367
RightToes  -4.65663e-010 0 -3.6325e-017
Spine  10.772 -4.07354 3.13456
Spine1  6.83988 -6.50646 10.0739
HEad  12.5644 11.7111 -5.96228
LeftShoulder1  8.92981 -12.6602 -48.2242
LeftArm  22.3837 -3.57049 -40.4624
LeftForeArm  54.5098 -47.5046 -8.38433
LeftHand  -0.244104 0.0205437 5.32207
RightShoulder  4.57927 7.81141 34.5155
RightArm  -5.3068 -22.3401 40.6027
RightForeArm  22.0925 10.6808 6.51015
RightHand  -0.362372 -1.09774 -9.6791
LeftUpLeg  14.0973 12.8268 8.29647
LeftLeg  23.3817 9.75196 5.11437
LeftFoot  -17.348 -0.816654 -17.754
LeftToes  -5.82109e-011 -4.83791e-012 -1.00937e-011
354
root  73.0008 38.4068 -0.847706 147.781 -82.6482 -150.116
RightUpLeg  -19.707 -14.7813 5.80858
RightLeg  25.2915 -0.946109 -0.718774
RightFoot  -4.08231 0.239535 -4.1885
RightToes  -4.65663e-010 0 -3.6325e-017
Spine  10.9772 -4.28218 3.60097
Spine1  6.32774 -6.57376 10.6618
HEad  13.3181 11.7551 -5.758
LeftShoulder1  8.90372 -12.6476 -48.1195
LeftArm  20.4421 -3.15511 -39.7138
LeftForeArm  52.2314 -45.9375 -7.98786
LeftHand  -0.244104 0.0205437 5.32207
RightShoulder  4.49776 7.54133 34.7613
RightArm  -7.72786 -20.612 39.7867
RightForeArm  23.6374 8.85637 6.11361
RightHand  -0.548666 0.13621 -11.6411
LeftUpLeg  9.11418 9.30076 7.83572
LeftLeg  33.9541 11.567 8.62536
LeftFoot  -9.76778 0.216968 -16.7177
LeftToes  -5.82109e-011 -4.83791e-012 -1.00937e-011
355
root  72.0296 38.4509 -1.18244 145.607 -82.528 -147.884
RightUpLeg  -18.35 -15.493 6.04166
RightLeg  26.1044 -0.422066 -0.461813
RightFoot  -6.07008 0.126754 -3.64435
RightToes  -4.65663e-010 0 -3.6325e-017
Spine  10.9115 -4.34288 4.96885
Spine1  6.51472 -6.25378 10.2032
HEad  13.4558 11.2213 -5.66197
LeftShoulder1  8.85812 -12.6346 -47.9097
LeftArm  17.7336 -3.11479 -39.3452
LeftForeArm  49.997 -42.7642 -7.1058
LeftHand  -0.244104 0.0205437 5.32207
RightShoulder  4.43605 7.48626 34.4107
RightArm  -10.1279 -18.4336 39.6447
RightForeArm  21.6946 8.18954 5.61377
RightHand  -0.584827 0.210619 -12.1878
LeftUpLeg  3.02604 7.0285 7.56761
LeftLeg  44.6872 10.6994 11.4412
LeftFoot  -0.266236 0.795376 -8.27667
LeftToes  -5.82109e-011 -4.83791e-012 -1.00937e-011
356
root  71.0824 38.5039 -1.47661 145.468 -82.1186 -147.995
RightUpLeg  -16.5064 -15.9632 6.05348
RightLeg  26.5784 0.217993 -0.132844
RightFoot  -7.91222 0.0481809 -3.41435
RightToes  -4.65663e-010 0 -3.6325e-017
Spine  11.0148 -4.06581 6.8221
Spine1  6.79395 -5.33862 9.01152
HEad  13.4313 10.3616 -5.60589
LeftShoulder1  8.96545 -12.7997 -47.9996
LeftArm  14.4473 -2.95096 -38.7577
LeftForeArm  47.8415 -38.8643 -6.10684
LeftHand  -0.244104 0.0205437 5.32207
RightShoulder  4.47631 7.68608 34.0533
RightArm  -10.9557 -16.325 39.1607
RightForeArm  16.4641 8.48695 5.72356
RightHand  -0.755139 0.742162 -14.2921
LeftUpLeg  -2.40706 5.80339 7.3738
LeftLeg  52.6462 7.5114 10.8466
LeftFoot  5.07497 0.195723 -1.31561
LeftToes  -5.82109e-011 -4.83791e-012 -1.00937e-011
357
root  70.1081 38.6867 -1.78247 150.156 -82.018 -153.08
RightUpLeg  -13.9318 -16.4095 5.15714
RightLeg  25.9753 0.978353 0.33001
RightFoot  -9.25434 0.000489152 -3.45573
RightToes  -4.65663e-010 0 -3.6325e-017
Spine  11.3062 -3.46248 7.53419
Spine1  6.57251 -4.22723 7.85756
HEad  13.7683 9.43335 -5.53962
LeftShoulder1  9.22331 -13.0866 -48.5333
LeftArm  11.4191 -2.39741 -37.5025
LeftForeArm  44.9052 -34.7735 -5.20762
LeftHand  -0.244104 0.0205437 5.32207
RightShoulder  4.59933 7.98914 34.0692
RightArm  -9.80124 -14.0802 37.8172
RightForeArm  12.349 9.25712 6.22534
RightHand  -1.08492 2.20667 -16.7173
LeftUpLeg  -6.86632 5.28413 6.6528
LeftLeg  57.1638 4.55904 8.11325
LeftFoot  4.91393 0.113946 -1.04872
LeftToes  -5.82109e-011 -4.83791e-012 -1.00937e-011
358
root  69.1268 38.9212 -2.10026 157.048 -82.2339 -160.211
RightUpLeg  -11.1927 -16.3403 3.58963
RightLeg  24.7475 1.13432 0.898614
RightFoot  -10.3018 -0.0395279 -3.29647
RightToes  -4.65663e-010 0 -3.6325e-017
Spine  11.4115 -2.83308 7.40325
Spine1  6.30131 -3.30223 6.93506
HEad  14.1723 8.60435 -5.53344
LeftShoulder1  9.38596 -13.2515 -48.9066
LeftArm  9.07482 -1.56058 -35.975
LeftForeArm  41.1402 -30.8495 -4.47408
LeftHand  -0.244104 0.0205437 5.32207
RightShoulder  4.63913 8.08062 34.0969
RightArm  -7.68815 -11.3583 36.3419
RightForeArm  11.0238 10.6722 6.55013
RightHand  -1.2519 3.06121 -17.3268
LeftUpLeg  -10.8772 5.03927 5.5072
LeftLeg  58.3967 2.91318 5.66642
LeftFoot  2.7246 0.426242 -3.57639
LeftToes  -5.82109e-011 -4.83791e-012 -1.00937e-011
359
root  68.131 39.1276 -2.4167 163.976 -82.3156 -167.19
RightUpLeg  -8.52784 -15.16 1.98901
RightLeg  23.3098 0.249527 1.44975
RightFoot  -11.2759 -0.0746108 -3.00844
RightToes  -4.65663e-010 0 -3.6325e-017
Spine  10.9436 -2.2313 7.42177
Spine1  6.69228 -2.44159 5.69015
HEad  14.0631 7.68386 -5.59302
LeftShoulder1  9.34232 -13.2622 -48.6463
LeftArm  7.19263 -0.560769 -34.5813
LeftForeArm  37.3696 -27.5288 -3.92898
LeftHand  -0.244104 0.0205437 5.32207
RightShoulder  4.5076 7.86591 33.6978
RightArm  -5.36892 -8.47388 35.5642
RightForeArm  9.65907 13.1008 6.40256
RightHand  -1.20862 2.97567 -16.8997
LeftUpLeg  -14.4246 5.11146 4.1304
LeftLeg  56.6912 2.69491 4.91617
LeftFoot  1.23199 0.391883 -3.60027
LeftToes  -5.82109e-011 -4.83791e-012 -1.00937e-011
